<?xml version="1.0" encoding="UTF-8"?>
<svg version="1.1" xmlns="http://www.w3.org/2000/svg" width="427" height="432">
<path d="M0 0 C140.91 0 281.82 0 427 0 C427 142.56 427 285.12 427 432 C286.09 432 145.18 432 0 432 C0 289.44 0 146.88 0 0 Z " fill="#111A29" transform="translate(0,0)"/>
<path d="M0 0 C60.39 0 120.78 0 183 0 C183 11.78427907 180.60357115 19.93798525 173 29 C162.04216037 39.66432607 147.62349347 44.469669 133.65478516 49.9140625 C118.50416782 55.86188116 102.0839305 63.25793221 95 79 C90.87698471 88.66776 91.15992518 96.27923467 94.7421875 106.13671875 C98.40621205 114.47749514 104.46775528 120.63766358 112.86328125 124.22265625 C118.92798972 126.37266091 124.60535934 127.47584913 131 128 C132 129 132 129 132.11352539 131.86743164 C132.10828857 133.11903076 132.10305176 134.37062988 132.09765625 135.66015625 C132.09553383 136.65685585 132.09553383 136.65685585 132.09336853 137.6736908 C132.08775518 139.80333899 132.07520054 141.93288339 132.0625 144.0625 C132.05748671 145.50325369 132.05292351 146.94400903 132.04882812 148.38476562 C132.03778145 151.92321102 132.02050792 155.46159539 132 159 C126.84072179 159.19840443 121.68368112 159.3432153 116.52148438 159.43945312 C114.76751007 159.47958095 113.01380169 159.53410049 111.26074219 159.60351562 C96.64923832 160.16741021 96.64923832 160.16741021 92.58911133 157.29345703 C91.07582989 155.25060906 90.06846557 153.29652683 89 151 C80.77036217 141.77657007 67.95628518 137.63072431 55.94921875 136.78515625 C41.89128948 136.36426016 28.80633314 139.86383349 17.734375 148.8359375 C15.17358207 151.29989372 13.30290727 153.26353186 11.9387207 156.58032227 C10 159 10 159 6.26293945 159.56762695 C4.71282793 159.56683644 3.16257456 159.53864584 1.61328125 159.48828125 C0.79627243 159.48120651 -0.02073639 159.47413177 -0.86250305 159.46684265 C-3.47176737 159.43885512 -6.0788846 159.37611306 -8.6875 159.3125 C-10.45634921 159.28742256 -12.22523207 159.26460842 -13.99414062 159.24414062 C-18.33025424 159.18901471 -22.66476315 159.10271575 -27 159 C-27.02465622 154.74585377 -27.04283899 150.49174502 -27.05493164 146.23754883 C-27.05997101 144.78929927 -27.06680253 143.34105483 -27.07543945 141.89282227 C-27.08752247 139.81525412 -27.09323211 137.73775303 -27.09765625 135.66015625 C-27.10289307 134.40855713 -27.10812988 133.15695801 -27.11352539 131.86743164 C-27 129 -27 129 -26 128 C-24.63431895 127.70601085 -23.25801493 127.46093253 -21.87890625 127.23828125 C-8.06143604 124.87743096 -8.06143604 124.87743096 4 118 C5.0725 117.2575 6.145 116.515 7.25 115.75 C14.89697218 108.10302782 17.38212723 100.10218163 17.453125 89.5534668 C17.33253488 84.09270574 16.4572228 80.39494675 13.09375 75.95703125 C6.58225769 69.87072967 1.23014256 67.01892192 -7.5625 65.375 C-9.51996138 64.96951887 -11.47699334 64.56195923 -13.43359375 64.15234375 C-14.85841064 63.86206299 -14.85841064 63.86206299 -16.31201172 63.56591797 C-22.27877355 62.30970054 -28.13917043 60.67750585 -34 59 C-34.96164063 58.74089844 -35.92328125 58.48179687 -36.9140625 58.21484375 C-58.00293696 51.96951591 -77.13031148 39.04127767 -88.5 20 C-90 17 -90 17 -90 15 C-63.6 15 -37.2 15 -10 15 C-5.52277657 25.07375271 -5.52277657 25.07375271 -4.375 29.25 C-3.42780782 32.65989183 -2.33135795 35.67160513 -1 39 C-0.67 26.13 -0.34 13.26 0 0 Z " fill="#01C7FA" transform="translate(213,196)"/>
<path d="M0 0 C64.91106569 -1.08894642 64.91106569 -1.08894642 92.16992188 -1.31835938 C98.4074902 -1.37120902 104.64504012 -1.42575833 110.88256836 -1.4831543 C112.05496639 -1.49383612 112.05496639 -1.49383612 113.25104922 -1.50473374 C125.81306267 -1.62165812 138.37168413 -1.83421436 150.93169681 -2.08312549 C163.85556661 -2.33708004 176.77768171 -2.48588543 189.70394343 -2.54038936 C196.95208947 -2.57388172 204.19315379 -2.6539587 211.43876076 -2.85471153 C260.82083561 -4.1842708 260.82083561 -4.1842708 274.57603353 7.78030437 C279.69886577 12.66966421 283.99977605 18.10439644 287.90867138 23.99569988 C290.76189454 28.09450032 294.25183631 31.38028651 297.9375 34.71875 C298.69160156 35.40517578 298.69160156 35.40517578 299.4609375 36.10546875 C299.96882813 36.56566406 300.47671875 37.02585938 301 37.5 C302.0218864 38.42592245 303.04272967 39.35299752 304.0625 40.28125 C304.50722656 40.68408203 304.95195312 41.08691406 305.41015625 41.50195312 C306.72104962 42.7371561 307.97669217 44.03071966 309.21557617 45.33813477 C311.84108713 47.8480818 314.47210938 49.8071356 317.44490051 51.86216736 C328.68562941 59.81902368 341.45784086 69.70704024 344.89984131 83.64337158 C347.79598258 102.83637278 345.7355004 122.81307889 344 142 C334.1 142 324.2 142 314 142 C314 130.45 314 118.9 314 107 C287.27 107 260.54 107 233 107 C233 81.59 233 56.18 233 30 C166.01 30 99.02 30 30 30 C30 55.08 30 80.16 30 106 C23.12696387 112.30028312 16.51794052 118.34102842 9.27734375 124.125 C7.02840874 125.90294474 7.02840874 125.90294474 5.31640625 127.75 C4 129 4 129 2 129 C2 129.66 2 130.32 2 131 C1.34 131 0.68 131 0 131 C0 87.77 0 44.54 0 0 Z " fill="#FBFBFB" transform="translate(52,34)"/>
<path d="M0 0 C0.33 0 0.66 0 1 0 C1 53.46 1 106.92 1 162 C-112.52 162 -226.04 162 -343 162 C-343 118.77 -343 75.54 -343 31 C-339.37859536 32.81070232 -337.34212751 34.34928122 -334.4375 37.0625 C-329.94727711 41.18739411 -325.3088307 45.05794892 -320.54296875 48.859375 C-317.89422894 51.08903616 -315.44818417 53.55181583 -313 56 C-313 81.08 -313 106.16 -313 132 C-219.28 132 -125.56 132 -29 132 C-29 93.72 -29 55.44 -29 16 C-25.04 14.35 -21.08 12.7 -17 11 C-14.02052037 9.30317757 -11.16961687 7.61929879 -8.3125 5.75 C-7.61189453 5.30398437 -6.91128906 4.85796875 -6.18945312 4.3984375 C-2.92723727 2.41694944 -2.92723727 2.41694944 0 0 Z " fill="#FAFBFB" transform="translate(395,243)"/>
<path d="M0 0 C0.35003238 5.31549175 0.60177484 10.62410273 0.76904297 15.94848633 C0.83882663 17.75240998 0.93391342 19.55555982 1.05615234 21.35668945 C2.09591553 37.0885686 2.09591553 37.0885686 -2.9831543 43.01000977 C-5.86456785 45.87241791 -8.95903184 48.36970372 -12.25292969 50.74034119 C-14.78458334 52.56569407 -17.16249315 54.568963 -19.5625 56.5625 C-20.43648438 57.26246094 -21.31046875 57.96242187 -22.2109375 58.68359375 C-26.63243984 62.35579387 -30.79865503 66.29518129 -35 70.21484375 C-37.9621924 72.97666341 -40.9902134 75.65302434 -44.0546875 78.30078125 C-46.3366529 80.29406428 -48.57228574 82.33493027 -50.8125 84.375 C-54.27530082 87.50422827 -57.80679003 90.50500349 -61.4375 93.4375 C-67.170343 98.07291305 -72.59362514 102.99099892 -78 108 C-75.07465927 111.93407892 -71.9611611 114.94136186 -68.125 118 C-63.36729093 121.79590805 -58.91708835 125.81415528 -54.5 130 C-49.4158702 134.80989801 -44.22518766 139.34824801 -38.75390625 143.71875 C-34.33555789 147.3787719 -30.17983851 151.31563258 -25.984375 155.2265625 C-19.39870126 161.36526337 -12.50180556 167.15451888 -5.65844727 173.00195312 C-1.10437116 176.89562884 -1.10437116 176.89562884 0 178 C0.08865208 180.8843382 0.11521296 183.74462158 0.09765625 186.62890625 C0.0962413 187.49313705 0.09482635 188.35736786 0.09336853 189.24778748 C0.08775239 192.01939292 0.07519719 194.7909188 0.0625 197.5625 C0.05748708 199.4368478 0.05292381 201.31119685 0.04882812 203.18554688 C0.03777772 207.79039544 0.0205023 212.39518421 0 217 C-4.71065991 213.55344597 -9.2182684 210.04115722 -13.5 206.0625 C-18.95849429 201.03710101 -24.49273052 196.12639169 -30.1484375 191.32421875 C-36.59358089 185.8438087 -42.91962349 180.27883389 -49.10205078 174.50341797 C-53.57032302 170.34899349 -58.18002975 166.38122116 -62.83325195 162.4362793 C-66.70096381 159.14611127 -70.46882259 155.76980266 -74.1875 152.3125 C-78.82469119 148.0153695 -83.62672063 144.00860138 -88.55078125 140.046875 C-91.25938087 137.78322875 -93.67894315 135.35469051 -96.12109375 132.8125 C-98.47751006 130.5393666 -101.00215335 128.54000702 -103.5625 126.5 C-115.34227549 117.0210885 -115.34227549 117.0210885 -116.34375 110.8984375 C-116.64044608 106.10679584 -116.49310425 102.86319166 -113.3125 99.125 C-111.90590282 97.71840282 -110.463073 96.3477569 -109 95 C-108.00829706 94.05163539 -107.01747171 93.10235257 -106.02734375 92.15234375 C-100.17285402 86.59869865 -94.10739793 81.39430764 -87.8125 76.34375 C-84.01756733 73.18130611 -80.43556921 69.81321541 -76.83154297 66.43701172 C-73.52804738 63.36006386 -70.15579447 60.4433493 -66.625 57.625 C-62.04198839 53.95057378 -57.76402312 50.03318878 -53.5 46 C-48.41190272 41.18734858 -43.21886646 36.6450299 -37.7421875 32.2734375 C-34.54957967 29.6265746 -31.52563588 26.83429132 -28.5 24 C-23.70743272 19.51230521 -18.77745222 15.2888053 -13.65234375 11.1796875 C-9.94675418 8.134446 -6.42271319 4.90423851 -2.8984375 1.65234375 C-1 0 -1 0 0 0 Z " fill="#FAFAFB" transform="translate(145,111)"/>
<path d="M0 0 C60.39 0 120.78 0 183 0 C183 11.78427907 180.60357115 19.93798525 173 29 C161.34015169 40.34753095 144.50999262 46.78986116 129 51 C129 50.34 129 49.68 129 49 C129.86882812 48.68546875 130.73765625 48.3709375 131.6328125 48.046875 C137.60322966 45.8296731 142.74335174 43.62124658 148 40 C156.68728522 36 156.68728522 36 161 36 C161 35.34 161 34.68 161 34 C162.32 34 163.64 34 165 34 C165 33.01 165 32.02 165 31 C166.65 30.67 168.3 30.34 170 30 C170 29.01 170 28.02 170 27 C170.99 27 171.98 27 173 27 C173.0825 26.278125 173.165 25.55625 173.25 24.8125 C174.15407124 21.42223285 175.78224048 19.68819336 178 17 C180.72974213 11.97152765 180.37600669 8.23993309 181 2 C121.93 2 62.86 2 2 2 C2 15.86 2 29.72 2 44 C-2 43 -2 43 -3.5859375 40.90625 C-5.23290047 37.52133164 -6.4776769 34.07653189 -7.625 30.5 C-7.8415625 29.84902344 -8.058125 29.19804687 -8.28125 28.52734375 C-9.43173412 25.0119756 -10.27150716 21.64246421 -11 18 C-35.75 17.67 -60.5 17.34 -86 17 C-85.67 18.98 -85.34 20.96 -85 23 C-84.175 23.33 -83.35 23.66 -82.5 24 C-81.675 24.33 -80.85 24.66 -80 25 C-79.1875 28.125 -79.1875 28.125 -79 31 C-84.33090641 27.55058997 -87.18357292 22.55542661 -90 17 C-90 16.34 -90 15.68 -90 15 C-63.6 15 -37.2 15 -10 15 C-5.52277657 25.07375271 -5.52277657 25.07375271 -4.375 29.25 C-3.42780782 32.65989183 -2.33135795 35.67160513 -1 39 C-0.67 26.13 -0.34 13.26 0 0 Z " fill="#259AC0" transform="translate(213,196)"/>
<path d="M0 0 C7.87700733 6.75172057 7.87700733 6.75172057 10.36499023 9.2355957 C10.92504257 9.79249588 11.48509491 10.34939606 12.06211853 10.923172 C12.63845535 11.50153305 13.21479218 12.0798941 13.80859375 12.67578125 C14.42017838 13.28640915 15.031763 13.89703705 15.66188049 14.52616882 C16.93947039 15.80308385 18.21582103 17.08123993 19.4909668 18.3605957 C21.45312256 20.32816566 23.4206352 22.29026732 25.38867188 24.25195312 C26.63313376 25.49707483 27.87728594 26.74250616 29.12109375 27.98828125 C29.71160019 28.57676346 30.30210663 29.16524567 30.9105072 29.77156067 C35 33.88501452 35 33.88501452 35 35 C23.45 35 11.9 35 0 35 C0 23.45 0 11.9 0 0 Z " fill="#151C29" transform="translate(315,76)"/>
<path d="M0 0 C59.73 0 119.46 0 181 0 C181 12.96185998 180.19866292 18.89046485 171.953125 28.34765625 C162.17178059 37.61137477 141.80929225 50 128 50 C128 49.34 128 48.68 128 48 C128.86882812 47.68546875 129.73765625 47.3709375 130.6328125 47.046875 C136.60322966 44.8296731 141.74335174 42.62124658 147 39 C155.68728522 35 155.68728522 35 160 35 C160 34.34 160 33.68 160 33 C161.32 33 162.64 33 164 33 C164 32.01 164 31.02 164 30 C165.65 29.67 167.3 29.34 169 29 C169 28.01 169 27.02 169 26 C169.99 26 170.98 26 172 26 C172.0825 25.278125 172.165 24.55625 172.25 23.8125 C173.15407124 20.42223285 174.78224048 18.68819336 177 16 C179.72974213 10.97152765 179.37600669 7.23993309 180 1 C120.93 1 61.86 1 1 1 C1 14.86 1 28.72 1 43 C0.01 42.67 -0.98 42.34 -2 42 C-1.34 42 -0.68 42 0 42 C0 28.14 0 14.28 0 0 Z " fill="#23BAE3" transform="translate(214,197)"/>
<path d="M0 0 C2.1462026 0.14029419 4.29196218 0.28738164 6.4375 0.4375 C7.63246094 0.51871094 8.82742188 0.59992188 10.05859375 0.68359375 C13 1 13 1 14 2 C14.08783542 4.21855264 14.10694609 6.43988496 14.09765625 8.66015625 C14.0962413 9.32462265 14.09482635 9.98908905 14.09336853 10.6736908 C14.08775518 12.80333899 14.07520054 14.93288339 14.0625 17.0625 C14.05748671 18.50325369 14.05292351 19.94400903 14.04882812 21.38476562 C14.03778145 24.92321102 14.02050792 28.46159539 14 32 C8.84072179 32.19840443 3.68368112 32.3432153 -1.47851562 32.43945312 C-3.23248993 32.47958095 -4.98619831 32.53410049 -6.73925781 32.60351562 C-21.35757696 33.16767323 -21.35757696 33.16767323 -25.39111328 30.30004883 C-26.89134237 28.25980293 -27.89365343 26.26790274 -29 24 C-32.35153081 20.65338674 -36.15928809 17.76531257 -40 15 C-34.64060279 15.26357691 -34.64060279 15.26357691 -32 16 C-30.3125 18.4375 -30.3125 18.4375 -29 21 C-28.13375 21.309375 -27.2675 21.61875 -26.375 21.9375 C-25.59125 22.288125 -24.8075 22.63875 -24 23 C-23.67 24.98 -23.34 26.96 -23 29 C-11.78 29 -0.56 29 11 29 C11 20.42 11 11.84 11 3 C8.03 2.67 5.06 2.34 2 2 C1.34 1.34 0.68 0.68 0 0 Z " fill="#1CA4CA" transform="translate(331,323)"/>
<path d="M0 0 C-3.76551923 3.7756416 -7.72903237 3.54063527 -12.75 3.6875 C-15.4725 3.790625 -18.195 3.89375 -21 4 C-21 13.24 -21 22.48 -21 32 C-9.78 32 1.44 32 13 32 C13.66 29.69 14.32 27.38 15 25 C17.5 23.25 17.5 23.25 20 22 C20.66 21.01 21.32 20.02 22 19 C22.99 19 23.98 19 25 19 C25 18.34 25 17.68 25 17 C26.43344 16.46809459 27.87195367 15.94984742 29.3125 15.4375 C30.51326172 15.00244141 30.51326172 15.00244141 31.73828125 14.55859375 C34 14 34 14 37 15 C36.14277344 15.42410156 35.28554687 15.84820312 34.40234375 16.28515625 C23.18993501 21.823259 23.18993501 21.823259 15.9387207 31.58032227 C14 34 14 34 10.26293945 34.56762695 C8.71282793 34.56683644 7.16257456 34.53864584 5.61328125 34.48828125 C4.79627243 34.48120651 3.97926361 34.47413177 3.13749695 34.46684265 C0.52823263 34.43885512 -2.0788846 34.37611306 -4.6875 34.3125 C-6.45634921 34.28742256 -8.22523207 34.26460842 -9.99414062 34.24414062 C-14.33025424 34.18901471 -18.66476315 34.10271575 -23 34 C-23.02465622 29.74585377 -23.04283899 25.49174502 -23.05493164 21.23754883 C-23.05997101 19.78929927 -23.06680253 18.34105483 -23.07543945 16.89282227 C-23.08752247 14.81525412 -23.09323211 12.73775303 -23.09765625 10.66015625 C-23.10289307 9.40855713 -23.10812988 8.15695801 -23.11352539 6.86743164 C-23 4 -23 4 -22 3 C-18.71990149 2.15064031 -15.38464664 1.53805749 -12.0625 0.875 C-11.12986328 0.68035156 -10.19722656 0.48570312 -9.23632812 0.28515625 C-7.89924805 0.01638672 -7.89924805 0.01638672 -6.53515625 -0.2578125 C-5.714104 -0.4242627 -4.89305176 -0.59071289 -4.04711914 -0.76220703 C-2 -1 -2 -1 0 0 Z " fill="#1E98BC" transform="translate(209,321)"/>
<path d="M0 0 C0.66 0.33 1.32 0.66 2 1 C2.33 1.99 2.66 2.98 3 4 C6.00847418 5.22520264 6.00847418 5.22520264 9 6 C9 6.66 9 7.32 9 8 C10.2375 7.95875 11.475 7.9175 12.75 7.875 C16.14120708 7.86906093 18.01642913 8.36384823 21 10 C22.216875 10.165 23.43375 10.33 24.6875 10.5 C25.780625 10.665 26.87375 10.83 28 11 C29.47263896 13.94527792 29.39201516 16.79072719 29.625 20.0625 C29.72039062 21.33222656 29.81578125 22.60195313 29.9140625 23.91015625 C29.94242187 24.92980469 29.97078125 25.94945312 30 27 C29.505 27.495 29.505 27.495 29 28 C28.97367045 31.18587573 29.02939398 34.35703998 29.12695312 37.54101562 C29.15690319 39.36092266 29.08461477 41.18181438 29 43 C27 45 27 45 23.28466797 45.13525391 C21.6868607 45.09288067 20.08932853 45.03920509 18.4921875 44.9765625 C17.65156769 44.95153656 16.81094788 44.92651062 15.94485474 44.90072632 C13.25449942 44.81841854 10.56486653 44.72187164 7.875 44.625 C6.05341513 44.56677139 4.23180043 44.50946789 2.41015625 44.453125 C-2.06031288 44.31282386 -6.53018527 44.15974899 -11 44 C-11 43.34 -11 42.68 -11 42 C-11.66 42 -12.32 42 -13 42 C-12.67 40.68 -12.34 39.36 -12 38 C-11.34 39.65 -10.68 41.3 -10 43 C2.21 43 14.42 43 27 43 C26.67 33.1 26.34 23.2 26 13 C21.71 12.34 17.42 11.68 13 11 C6.47055246 8.82351749 1.96910332 6.70757157 -3 2 C-2.01 1.34 -1.02 0.68 0 0 Z " fill="#03283E" transform="translate(318,312)"/>
<path d="M0 0 C0 0.66 0 1.32 0 2 C-5.16683854 4.77478366 -10.01994421 6.73441245 -15.703125 8.19140625 C-18.08809296 8.90082776 -18.08809296 8.90082776 -20.09375 10.578125 C-22.74043445 12.55229127 -24.78810627 12.21899275 -28 12 C-28.309375 12.86625 -28.309375 12.86625 -28.625 13.75 C-30.14929868 16.24430693 -31.75554383 17.22020852 -34.21484375 18.71875 C-37.23578148 20.88695038 -39.65018888 23.66923769 -42.16796875 26.390625 C-44 28 -44 28 -47 28 C-47.28875 28.639375 -47.5775 29.27875 -47.875 29.9375 C-49 32 -49 32 -51 33 C-42.93491354 15.29615168 -22.53087635 7.79363299 -5.62890625 1.2890625 C-2 0 -2 0 0 0 Z " fill="#042D44" transform="translate(359,241)"/>
<path d="M0 0 C3.71141008 0.74228202 5.69242186 2.36448904 7.8125 5.375 C10.43126238 10.45506753 10.5067099 15.46199272 10.5625 21.0625 C10.57708252 21.91312012 10.59166504 22.76374023 10.60668945 23.64013672 C10.51701754 29.24979413 9.69441229 34.55700407 6 39 C4.6739656 39.36127783 3.34065086 39.69743735 2 40 C1.5359375 41.175625 1.5359375 41.175625 1.0625 42.375 C-0.29021563 45.71700333 -1.76307087 46.54338189 -5 48 C-5.66 47.67 -6.32 47.34 -7 47 C-5.96875 46.21625 -4.9375 45.4325 -3.875 44.625 C2.14332708 39.49963609 6.64613253 32.23745094 7.30859375 24.3046875 C7.66594368 15.14927883 7.39834142 9.10729892 1 2 C0.67 1.34 0.34 0.68 0 0 Z " fill="#16BAE2" transform="translate(223,268)"/>
<path d="M0 0 C10.65688885 -0.0694077 21.31372422 -0.12276419 31.97079277 -0.15543652 C36.91892333 -0.17111495 41.86689964 -0.19239277 46.81494141 -0.22631836 C51.58708341 -0.2588344 56.35907675 -0.2768366 61.13132095 -0.28463173 C62.95506253 -0.29018923 64.77879567 -0.30104119 66.60247421 -0.31719017 C69.1503657 -0.33886167 71.69763715 -0.34197129 74.24560547 -0.34057617 C75.00517548 -0.351362 75.76474548 -0.36214783 76.54733276 -0.3732605 C78.64645386 -0.36076355 78.64645386 -0.36076355 82 0 C84.4294516 3.6441774 84.16179575 5.71241272 84 10 C82 7 82 7 80 2 C53.6 1.67 27.2 1.34 0 1 C0 0.67 0 0.34 0 0 Z " fill="#012D46" transform="translate(123,210)"/>
<path d="M0 0 C0.33 0 0.66 0 1 0 C1 13.86 1 27.72 1 42 C-0.75917906 39.3612314 -1.92919884 37.03921171 -3.125 34.125 C-3.47820312 33.28195313 -3.83140625 32.43890625 -4.1953125 31.5703125 C-5.03182698 28.89833906 -5.14952633 26.78118973 -5 24 C-4.34 24.33 -3.68 24.66 -3 25 C-3 25.99 -3 26.98 -3 28 C-2.34 28 -1.68 28 -1 28 C-1.01160156 26.90042969 -1.02320313 25.80085938 -1.03515625 24.66796875 C-1.09517362 16.38463366 -0.99647506 8.23871347 0 0 Z " fill="#02334C" transform="translate(212,196)"/>
<path d="M0 0 C5.29387955 0.44703872 9.98572939 1.14689999 15 3 C18.67278692 4.15624773 22.17965941 5.07961503 26 5.5 C29.87514628 5.9381257 33.32890135 6.65143315 37 8 C37.495 9.485 37.495 9.485 38 11 C27.39749279 10.25596441 7.72333821 7.72333821 0 0 Z " fill="#1CAFD6" transform="translate(165,249)"/>
<path d="M0 0 C-0.28617187 0.54269531 -0.57234375 1.08539063 -0.8671875 1.64453125 C-5.86821333 12.04321599 -7.65185093 20.46890488 -4 31.4375 C-3.62875 32.44683594 -3.2575 33.45617187 -2.875 34.49609375 C-2 37 -2 37 -2 39 C-2.99 38.67 -3.98 38.34 -5 38 C-5 36.35 -5 34.7 -5 33 C-5.66 33 -6.32 33 -7 33 C-9.48451339 30.51548661 -9.28201915 28.98957477 -9.32861328 25.59106445 C-9.3232959 24.88038818 -9.31797852 24.16971191 -9.3125 23.4375 C-9.30976074 22.71457764 -9.30702148 21.99165527 -9.30419922 21.24682617 C-9.19600964 15.70366474 -8.27670691 11.08053316 -6 6 C-5.649375 5.01 -5.29875 4.02 -4.9375 3 C-3.71655291 0.39531288 -2.85008012 0 0 0 Z " fill="#1FAFD7" transform="translate(311,268)"/>
<path d="M0 0 C3.63708069 3.47894674 4.1789008 5.6181661 4.3425293 10.71435547 C4.46938991 19.6441977 3.78935785 26.95266737 -2.66796875 33.7578125 C-3.10753906 34.16773438 -3.54710937 34.57765625 -4 35 C-4 33.68 -4 32.36 -4 31 C-3.34 31 -2.68 31 -2 31 C-1.85691406 30.27425781 -1.71382812 29.54851562 -1.56640625 28.80078125 C-1.2155054 27.06563703 -0.85095791 25.33311823 -0.46484375 23.60546875 C1.3143586 15.44749651 1.17898304 8.25288131 0 0 Z " fill="#042F47" transform="translate(227,274)"/>
<path d="M0 0 C0.66 0.33 1.32 0.66 2 1 C2.33 1.99 2.66 2.98 3 4 C6.00847418 5.22520264 6.00847418 5.22520264 9 6 C9 6.66 9 7.32 9 8 C10.2375 7.95875 11.475 7.9175 12.75 7.875 C16.14120708 7.86906093 18.01642913 8.36384823 21 10 C23.32495277 10.38749213 25.65851268 10.72982839 28 11 C28 13.31 28 15.62 28 18 C27.67 18 27.34 18 27 18 C26.505 15.525 26.505 15.525 26 13 C25.17757813 12.90203125 24.35515625 12.8040625 23.5078125 12.703125 C13.18955648 11.32100295 4.67981709 9.27561619 -3 2 C-2.01 1.34 -1.02 0.68 0 0 Z " fill="#043048" transform="translate(318,312)"/>
<path d="M0 0 C3.95826931 -0.05880857 7.91642392 -0.09386513 11.875 -0.125 C13.53789062 -0.15013672 13.53789062 -0.15013672 15.234375 -0.17578125 C29.02759139 -0.25691782 29.02759139 -0.25691782 35 2 C35.66 2.99 36.32 3.98 37 5 C36.06800781 4.7834375 35.13601563 4.566875 34.17578125 4.34375 C20.992553 1.46450096 9.33400739 1.5557957 -4 4 C-4 3.34 -4 2.68 -4 2 C-2.68 2 -1.36 2 0 2 C0 1.34 0 0.68 0 0 Z " fill="#26ADD1" transform="translate(250,331)"/>
<path d="M0 0 C0.9821994 3.27626375 1.11580914 6.22788119 1.09765625 9.640625 C1.09282227 11.24550781 1.09282227 11.24550781 1.08789062 12.8828125 C1.07951172 13.99398438 1.07113281 15.10515625 1.0625 16.25 C1.05798828 17.37664062 1.05347656 18.50328125 1.04882812 19.6640625 C1.03705397 22.44276217 1.0206084 25.22135409 1 28 C-2.87772518 22.18341223 -3.78319813 15.84447059 -3 9 C-2.19066773 5.91705223 -1.17605146 2.96112957 0 0 Z " fill="#03324A" transform="translate(307,275)"/>
<path d="M0 0 C2.80780543 0.56156109 4.55020939 1.48821123 6.4453125 3.64453125 C10.77418091 10.31098861 10.94753069 17.24022233 10 25 C9.34 25.99 8.68 26.98 8 28 C7.99742187 26.87722656 7.99484375 25.75445312 7.9921875 24.59765625 C7.81211002 15.43109865 7.27911625 9.15319778 1 2 C0.67 1.34 0.34 0.68 0 0 Z " fill="#21A9CD" transform="translate(223,268)"/>
<path d="M0 0 C7.72270007 2.03228949 15.58888393 6.18282062 20 13 C17.525 12.505 17.525 12.505 15 12 C15 11.34 15 10.68 15 10 C13.68 9.67 12.36 9.34 11 9 C11 8.34 11 7.68 11 7 C10.01 7 9.02 7 8 7 C8 6.34 8 5.68 8 5 C7.01 5 6.02 5 5 5 C5 4.34 5 3.68 5 3 C2.03 2.505 2.03 2.505 -1 2 C-0.67 1.34 -0.34 0.68 0 0 Z " fill="#04364E" transform="translate(283,335)"/>
<path d="M0 0 C0.66 0.33 1.32 0.66 2 1 C1 4 1 4 -1.875 5.6875 C-5 7 -5 7 -8 7 C-8 7.66 -8 8.32 -8 9 C-11.33909037 11.22606025 -14.09914263 12.11033078 -18 13 C-20.22265625 12.55078125 -20.22265625 12.55078125 -22 12 C-21.24976563 11.72027344 -20.49953125 11.44054687 -19.7265625 11.15234375 C-12.38583149 8.27707001 -6.24935044 4.7976208 0 0 Z " fill="#073D57" transform="translate(381,228)"/>
<path d="M0 0 C0.33 0 0.66 0 1 0 C1 5.28 1 10.56 1 16 C0.34 16 -0.32 16 -1 16 C-1.28875 16.886875 -1.5775 17.77375 -1.875 18.6875 C-2.83148748 21.50382424 -3.86798946 24.25083156 -5 27 C-5.99 27 -6.98 27 -8 27 C-6.86987646 23.98633724 -5.62622147 21.35756816 -4 18.5625 C-1.02528684 12.80176817 -0.67901542 6.36130231 0 0 Z " fill="#073C57" transform="translate(396,196)"/>
<path d="M0 0 C0 0.66 0 1.32 0 2 C-0.99 2 -1.98 2 -3 2 C-3.226875 2.5775 -3.45375 3.155 -3.6875 3.75 C-5.33199647 6.56913681 -7.4355467 8.01254869 -10 10 C-10.99 11.485 -10.99 11.485 -12 13 C-12.99 13 -13.98 13 -15 13 C-13.50536684 9.3852622 -11.4391696 7.35564512 -8.5 4.8125 C-7.7059375 4.11769531 -6.911875 3.42289062 -6.09375 2.70703125 C-2.77345538 0 -2.77345538 0 0 0 Z " fill="#053248" transform="translate(240,339)"/>
<path d="M0 0 C-9 4.5 -9 4.5 -18 9 C-17.37081707 6.16867679 -16.67579102 4.45251205 -14.2265625 2.8125 C-5.29635576 -1.70240006 -5.29635576 -1.70240006 0 0 Z " fill="#1EB1D8" transform="translate(341,248)"/>
<path d="M0 0 C0 0.66 0 1.32 0 2 C-14.30865812 9.68427936 -14.30865812 9.68427936 -20.296875 8.57421875 C-20.85890625 8.38472656 -21.4209375 8.19523438 -22 8 C-10.76953125 3.5078125 -10.76953125 3.5078125 -8.81103516 2.72753906 C-7.24768082 2.09949971 -5.69146793 1.45373695 -4.13671875 0.8046875 C-2 0 -2 0 0 0 Z " fill="#053954" transform="translate(359,241)"/>
<path d="M0 0 C5.35939721 0.26357691 5.35939721 0.26357691 8 1 C9.6875 3.4375 9.6875 3.4375 11 6 C13.57099402 7.34689915 13.57099402 7.34689915 16 8 C16.33 10.31 16.66 12.62 17 15 C16.34 14.319375 15.68 13.63875 15 12.9375 C10.3224741 8.2599741 5.32982027 3.91723984 0 0 Z " fill="#20B0D5" transform="translate(291,338)"/>
<path d="M0 0 C8.58 1.65 17.16 3.3 26 5 C26 5.33 26 5.66 26 6 C17.61044093 5.34938113 9.31984045 4.25101251 1 3 C0.67 2.01 0.34 1.02 0 0 Z " fill="#063D58" transform="translate(187,257)"/>
<path d="M0 0 C0.6875 2.0625 0.6875 2.0625 1 4 C1.78375 4.12375 2.5675 4.2475 3.375 4.375 C6 5 6 5 8 7 C5 8 5 8 1.86328125 6.56640625 C0.6739872 5.90864027 -0.50946371 5.24022185 -1.6875 4.5625 C-2.29400391 4.22412109 -2.90050781 3.88574219 -3.52539062 3.53710938 C-5.0220025 2.70042085 -6.51169189 1.85137169 -8 1 C-8 0.67 -8 0.34 -8 0 C-4.71303767 -0.79953138 -3.28976808 -1.09658936 0 0 Z " fill="#16B7E1" transform="translate(158,241)"/>
<path d="M0 0 C0 0.33 0 0.66 0 1 C-1.08667969 1.07347656 -1.08667969 1.07347656 -2.1953125 1.1484375 C-8.25723659 1.59230148 -8.25723659 1.59230148 -14.125 3.0625 C-18.10330924 4.35977475 -21.85211219 4.16591551 -26 4 C-18.43532818 -1.04311454 -8.75301208 -0.24695018 0 0 Z " fill="#073F59" transform="translate(272,332)"/>
<path d="M0 0 C0.66 0 1.32 0 2 0 C2 1.32 2 2.64 2 4 C2.66 4 3.32 4 4 4 C4 4.99 4 5.98 4 7 C5.2065625 7.309375 5.2065625 7.309375 6.4375 7.625 C7.283125 8.07875 8.12875 8.5325 9 9 C9.8125 12.125 9.8125 12.125 10 15 C5.38496316 11.83540331 2.41530347 8.00533102 0 3 C0 2.01 0 1.02 0 0 Z " fill="#22B1D7" transform="translate(124,212)"/>
<path d="M0 0 C7.28695785 -0.474377 11.97181491 -0.28670939 18 4 C18 4.66 18 5.32 18 6 C18.66 6 19.32 6 20 6 C19.67 6.66 19.34 7.32 19 8 C18.19949219 7.49339844 18.19949219 7.49339844 17.3828125 6.9765625 C11.6927583 3.57040549 6.55420827 1.91676817 0 1 C0 0.67 0 0.34 0 0 Z " fill="#22ABD3" transform="translate(203,260)"/>
<path d="M0 0 C-3.81430812 3.90861793 -8.12148763 3.54726724 -13.25 3.6875 C-14.09046875 3.72166016 -14.9309375 3.75582031 -15.796875 3.79101562 C-17.86412204 3.87323568 -19.93203874 3.93830157 -22 4 C-22 3.67 -22 3.34 -22 3 C-18.71054718 2.30160332 -15.41816726 1.6181478 -12.125 0.9375 C-11.18785156 0.73833984 -10.25070313 0.53917969 -9.28515625 0.33398438 C-8.38925781 0.15029297 -7.49335938 -0.03339844 -6.5703125 -0.22265625 C-5.32918701 -0.48187866 -5.32918701 -0.48187866 -4.06298828 -0.74633789 C-2 -1 -2 -1 0 0 Z " fill="#209CC1" transform="translate(209,321)"/>
<path d="M0 0 C0.33 1.32 0.66 2.64 1 4 C0.01 4.33 -0.98 4.66 -2 5 C-2.28875 5.78375 -2.5775 6.5675 -2.875 7.375 C-4.29265602 10.68286406 -5.764271 11.54392195 -9 13 C-9.66 12.67 -10.32 12.34 -11 12 C-10.54109375 11.63648438 -10.0821875 11.27296875 -9.609375 10.8984375 C-5.56506013 7.58481817 -2.67466686 4.49344033 0 0 Z " fill="#22ABD2" transform="translate(227,303)"/>
<path d="M0 0 C0.87011719 0.50660156 0.87011719 0.50660156 1.7578125 1.0234375 C6.09001059 3.49693674 10.16670766 5.6367637 15 7 C15 7.33 15 7.66 15 8 C8.89357521 8.78287497 4.99540421 6.10825151 0 3 C0 2.01 0 1.02 0 0 Z " fill="#21ABCF" transform="translate(316,315)"/>
<path d="M0 0 C0.680625 0.70125 1.36125 1.4025 2.0625 2.125 C5.20780513 5.27934337 8.5888386 8.13934304 12 11 C11.01 11.33 10.02 11.66 9 12 C6.3125 10.1875 6.3125 10.1875 4 8 C4 7.34 4 6.68 4 6 C3.34 6 2.68 6 2 6 C1.34 4.02 0.68 2.04 0 0 Z " fill="#05344D" transform="translate(132,226)"/>
<path d="M0 0 C2.18697502 2.79624958 3.99152813 5.63307872 5.6875 8.75 C6.12449219 9.54921875 6.56148437 10.3484375 7.01171875 11.171875 C7.33785156 11.77515625 7.66398438 12.3784375 8 13 C6.68 12.67 5.36 12.34 4 12 C3.67 10.35 3.34 8.7 3 7 C2.34 7 1.68 7 1 7 C0.67 4.69 0.34 2.38 0 0 Z " fill="#042F4A" transform="translate(122,211)"/>
<path d="M0 0 C2.97 0 5.94 0 9 0 C9 0.66 9 1.32 9 2 C4.71 2.66 0.42 3.32 -4 4 C-4 3.34 -4 2.68 -4 2 C-2.68 2 -1.36 2 0 2 C0 1.34 0 0.68 0 0 Z " fill="#20B1D9" transform="translate(250,331)"/>
<path d="M0 0 C0.66 0.33 1.32 0.66 2 1 C-0.3125 3.5 -0.3125 3.5 -3 6 C-3.99 6 -4.98 6 -6 6 C-6.28875 6.639375 -6.5775 7.27875 -6.875 7.9375 C-8 10 -8 10 -10 11 C-8.13277847 6.79875157 -5.78155862 3.15277323 -1.875 0.625 C-1.25625 0.41875 -0.6375 0.2125 0 0 Z " fill="#07334C" transform="translate(318,263)"/>
<path d="M0 0 C2.0625 0.4375 2.0625 0.4375 4 1 C2.75160501 2.105981 1.50120766 3.20970201 0.25 4.3125 C-0.44609375 4.92738281 -1.1421875 5.54226563 -1.859375 6.17578125 C-3.85114506 7.87314734 -5.88898915 9.45477809 -8 11 C-7.67 9.68 -7.34 8.36 -7 7 C-6.34 7 -5.68 7 -5 7 C-5 6.34 -5 5.68 -5 5 C-4.34 5 -3.68 5 -3 5 C-2.690625 4.360625 -2.38125 3.72125 -2.0625 3.0625 C-1 1 -1 1 0 0 Z " fill="#24ACD1" transform="translate(319,257)"/>
<path d="M0 0 C1.48206495 0.254496 2.96068615 0.52911762 4.4375 0.8125 C5.67306641 1.03873047 5.67306641 1.03873047 6.93359375 1.26953125 C7.95646484 1.63111328 7.95646484 1.63111328 9 2 C9.33 2.99 9.66 3.98 10 5 C7.03 4.67 4.06 4.34 1 4 C0.67 2.68 0.34 1.36 0 0 Z " fill="#1AB5DD" transform="translate(193,255)"/>
<path d="M0 0 C0.598125 0.309375 1.19625 0.61875 1.8125 0.9375 C4.08956772 2.10209704 4.08956772 2.10209704 7 3 C7.33 4.65 7.66 6.3 8 8 C4.97009905 6.28032649 2.23672704 4.70761694 0 2 C0 1.34 0 0.68 0 0 Z " fill="#1FAFD6" transform="translate(134,227)"/>
<path d="M0 0 C1.41782145 0.06059066 2.83444466 0.14954123 4.25 0.25 C5.03890625 0.29640625 5.8278125 0.3428125 6.640625 0.390625 C9.67898672 1.17536743 10.96841312 2.67019853 13 5 C11.20620902 4.55005243 9.41501072 4.08975857 7.625 3.625 C6.62726563 3.36976563 5.62953125 3.11453125 4.6015625 2.8515625 C2 2 2 2 0 0 Z " fill="#20A3C6" transform="translate(165,249)"/>
<path d="M0 0 C4.35535069 1.16142685 6.64619703 2.07699505 9 6 C7.35 5.67 5.7 5.34 4 5 C4 4.34 4 3.68 4 3 C2.68 2.67 1.36 2.34 0 2 C0 1.34 0 0.68 0 0 Z " fill="#042A3F" transform="translate(294,342)"/>
<path d="M0 0 C0.99 0 1.98 0 3 0 C2.75 1.875 2.75 1.875 2 4 C-0.0625 5.25 -0.0625 5.25 -2 6 C-1.125 1.125 -1.125 1.125 0 0 Z " fill="#15B8E2" transform="translate(225,345)"/>
<path d="M0 0 C4.55737263 0.43820891 7.57653445 0.85041169 11 4 C8 5 8 5 5.95703125 4.22265625 C5.24933594 3.83980469 4.54164063 3.45695313 3.8125 3.0625 C3.09707031 2.68222656 2.38164062 2.30195313 1.64453125 1.91015625 C1.10183594 1.60980469 0.55914062 1.30945313 0 1 C0 0.67 0 0.34 0 0 Z " fill="#21ABD2" transform="translate(155,244)"/>
<path d="M0 0 C0.99 0.495 0.99 0.495 2 1 C2.6328125 3.50390625 2.6328125 3.50390625 3.125 6.5625 C3.29257813 7.57441406 3.46015625 8.58632812 3.6328125 9.62890625 C3.75398437 10.41136719 3.87515625 11.19382813 4 12 C1.07034088 9.07034088 0.05866431 6.319947 -0.125 2.1875 C-0.08375 1.465625 -0.0425 0.74375 0 0 Z " fill="#043A52" transform="translate(207,220)"/>
<path d="M0 0 C-1.28913487 0.67154933 -2.58140204 1.33708859 -3.875 2 C-4.59429687 2.37125 -5.31359375 2.7425 -6.0546875 3.125 C-8 4 -8 4 -10 4 C-10 3.01 -10 2.02 -10 1 C-3.375 -1.125 -3.375 -1.125 0 0 Z " fill="#22AAD0" transform="translate(246,336)"/>
<path d="M0 0 C1.9375 0.625 1.9375 0.625 4 2 C4.75 5.125 4.75 5.125 5 8 C2.20127563 5.47211993 0.54226981 3.79588866 0 0 Z " fill="#032C44" transform="translate(308,303)"/>
<path d="M0 0 C-0.309375 0.598125 -0.61875 1.19625 -0.9375 1.8125 C-2.10209704 4.08956772 -2.10209704 4.08956772 -3 7 C-3.99 7.33 -4.98 7.66 -6 8 C-5.40138258 5.64828869 -4.73075648 3.3140622 -4 1 C-2 0 -2 0 0 0 Z " fill="#1CB4D9" transform="translate(311,268)"/>
<path d="M0 0 C4.455 0.99 4.455 0.99 9 2 C9 2.66 9 3.32 9 4 C6.36 3.67 3.72 3.34 1 3 C0.67 2.01 0.34 1.02 0 0 Z " fill="#052C43" transform="translate(187,257)"/>
<path d="M0 0 C2.97 0.495 2.97 0.495 6 1 C6 1.99 6 2.98 6 4 C6.66 4 7.32 4 8 4 C8 4.66 8 5.32 8 6 C4.08597051 4.73058503 2.20927127 3.48832306 0 0 Z " fill="#23ABD2" transform="translate(142,235)"/>
<path d="M0 0 C2.18975773 3.28463659 2.99806563 6.20696275 4 10 C3.01 9.67 2.02 9.34 1 9 C-0.4783226 6.04335481 -0.06032783 3.25770263 0 0 Z " fill="#1E9EC1" transform="translate(203,212)"/>
<path d="M0 0 C0.99 0.33 1.98 0.66 3 1 C3.33 3.31 3.66 5.62 4 8 C1 6 1 6 0.3125 2.875 C0.209375 1.92625 0.10625 0.9775 0 0 Z " fill="#1BACD5" transform="translate(208,231)"/>
<path d="M0 0 C0.66 0.33 1.32 0.66 2 1 C0.02 3.31 -1.96 5.62 -4 8 C-4.33 6.68 -4.66 5.36 -5 4 C-4.01 4 -3.02 4 -2 4 C-1.34 2.68 -0.68 1.36 0 0 Z " fill="#25A5CA" transform="translate(388,219)"/>
<path d="M0 0 C3.37503669 1.1858237 5.64722731 2.27573689 8 5 C5.125 4.75 5.125 4.75 2 4 C0.625 1.9375 0.625 1.9375 0 0 Z " fill="#063650" transform="translate(214,263)"/>
<path d="M0 0 C4.455 1.98 4.455 1.98 9 4 C5 5 5 5 2.25 3.6875 C1.5075 3.130625 0.765 2.57375 0 2 C0 1.34 0 0.68 0 0 Z " fill="#06344D" transform="translate(152,243)"/>
</svg>
